<?xml version="1.0" encoding="iso-8859-1"?>
<!DOCTYPE svg PUBLIC "-//W3C//DTD SVG 1.1//EN" "http://www.w3.org/Graphics/SVG/1.1/DTD/svg11.dtd">
<svg 
 version="1.1" xmlns="http://www.w3.org/2000/svg" xmlns:xlink="http://www.w3.org/1999/xlink" x="0px" y="0px" width="512px"
	 height="512px" viewBox="0 0 512 512" style="enable-background:new 0 0 512 512;" xml:space="preserve"
><g id="afcae5a789ccd549f9c6e2a2f80e52a9"><g></g><g fill="#f3f5ed"><path style="display: inline;" d="M86.365,511.5v-57.46c20.756-7.378,45.924-20.271,45.924-38.359V275.187H86.365v-62.701h45.924
		v-42.844c0-53.492,13.828-95.527,41.096-124.938C200.586,15.371,236.653,0.5,280.582,0.5c48.471,0,85.531,15.766,110.201,46.874
		l-40.842,55.608c-18.949-22.253-44.949-33.524-77.355-33.524c-37.88,0-57.088,32.771-57.088,97.399v45.628h82.314v62.701h-82.314
		v163.181h70.641c18.324,0,33.607-3.053,45.412-9.078c11.113-5.662,22.713-16.269,34.516-31.546l59.568,44.912
		c-28.412,45.684-83.389,68.845-163.473,68.845H86.365z"></path></g></g></svg>